# xmcd
#
# Track frame offsets:
#	150
#	12287
#	26867
#	44399
#	61214
#	80637
#	100658
#	118911
#	131947
#	150508
#	167065
#	181090
#	192494
#	211135
#	224937
#	241272
#	258457
#	269062
#	281628
#	298831
#	311867
#	325299
#	340782
#
# Disc length: 4770 seconds
#
# Revision: 0
# Processed by: cddbd v1.5.2PL0 Copyright (c) Steve Scherf et al.
# Submitted via: EasyCDDAExtractor 12.0.1.1
#
DISCID=6e12a017
DTITLE=Various Artist - Country Hits, Vol. 13
DYEAR=2009
DGENRE=Country
TTITLE0=Waylon Jennings - Waymore's Blues
TTITLE1=Ann Tayler - Come On
TTITLE2=Alan Jackson and Jimmy Buffett - It's Five O'Clock Somewhere
TTITLE3=Trisha Yearwood - Believe Me Baby I Lied
TTITLE4=Eagles - Peaceful, Easy Feeling
TTITLE5=Sugarland - The Ride
TTITLE6=Chet Atkins and Mark Knopfler - Poor Boy Blues
TTITLE7=Kenny Chesney - She Don't Know She's Beautiful
TTITLE8=Toby Keith - I Love This Bar
TTITLE9=Gretchen Wilson - Redneck Woman
TTITLE10=Teencats - What Am I Gonna Do
TTITLE11=Furulunds - Bright lights  and country music
TTITLE12=Brad Paisley - I've Been Better
TTITLE13=Ann Tayler - Home To Louisiana
TTITLE14=Arly Karlsen - Four strong wind
TTITLE15=Elvis Costello - The Crooked Line
TTITLE16=Diamond Rio - Kissable  Huggable  Loveable  Unbelievable
TTITLE17=Clint Black - Summer's coming
TTITLE18=Toby Keith - As Good As I Once Was
TTITLE19=Sawyer Brown - Six Days On The Road
TTITLE20=Johnny Cash - After The Ball
TTITLE21=Teencats - Judy
TTITLE22=Ann Tayler - Another Lovesong
EXTD=
EXTT0=
EXTT1=
EXTT2=
EXTT3=
EXTT4=
EXTT5=
EXTT6=
EXTT7=
EXTT8=
EXTT9=
EXTT10=
EXTT11=
EXTT12=
EXTT13=
EXTT14=
EXTT15=
EXTT16=
EXTT17=
EXTT18=
EXTT19=
EXTT20=
EXTT21=
EXTT22=
PLAYORDER=
